<svg xmlns="http://www.w3.org/2000/svg" width="160" height="160" fill="none"><path stroke="#FF862D" stroke-width="4" d="m80 0 .016 79.921L110.615 6.09l-30.57 73.843 56.523-56.502-56.502 56.525 73.844-30.57-73.831 30.598L160 80l-79.921.016 73.831 30.599-73.844-30.57 56.502 56.523-56.524-56.502 30.571 73.844-30.6-73.831L80 160l-.016-79.921-30.599 73.831 30.57-73.844-56.523 56.502 56.501-56.524L6.09 110.615l73.831-30.6L0 80l79.921-.016L6.09 49.385l73.843 30.57-56.502-56.523 56.525 56.501L49.386 6.09l30.597 73.83L80 0Z"/></svg>