<svg width="28" height="28" viewBox="0 0 28 28" fill="none" xmlns="http://www.w3.org/2000/svg">
<path d="M7.4783 8.5H20.5216C20.7524 8.50097 20.9776 8.57033 21.169 8.69932C21.3603 8.82831 21.509 9.01113 21.5965 9.22467C21.6839 9.43821 21.706 9.67287 21.66 9.89899C21.6141 10.1251 21.5021 10.3325 21.3383 10.495L14.8283 17.005C14.7198 17.1144 14.5908 17.2011 14.4486 17.2604C14.3065 17.3196 14.154 17.3501 14 17.3501C13.846 17.3501 13.6935 17.3196 13.5513 17.2604C13.4091 17.2011 13.2801 17.1144 13.1716 17.005L6.66164 10.495C6.49781 10.3325 6.38585 10.1251 6.3399 9.89899C6.29395 9.67287 6.31608 9.43821 6.40349 9.22467C6.4909 9.01113 6.63967 8.82831 6.83099 8.69932C7.0223 8.57033 7.24757 8.50097 7.4783 8.5Z" fill="#393939"/>
</svg>
