<svg xmlns="http://www.w3.org/2000/svg" width="1265" height="229" fill="none"><path fill="#393939" d="M404.072 182.616c-22.527 0-41.275-7.412-56.244-22.236-14.824-14.969-22.236-33.863-22.236-56.68s7.412-41.638 22.236-56.462c14.969-14.97 33.717-22.454 56.244-22.454 11.917 0 22.963 2.325 33.136 6.976 10.173 4.65 18.675 11.263 25.506 19.838 6.976 8.575 11.772 18.53 14.388 29.866h-25.288c-3.633-10.173-9.665-18.094-18.094-23.762-8.429-5.813-18.312-8.72-29.648-8.72-15.26 0-27.904 5.16-37.932 15.478-10.028 10.319-15.042 23.471-15.042 39.458 0 15.841 5.014 28.921 15.042 39.24 10.028 10.173 22.672 15.26 37.932 15.26 11.627 0 21.727-3.052 30.302-9.156 8.575-6.249 14.533-14.751 17.876-25.506h25.506c-3.924 17.876-12.571 32.191-25.942 42.946-13.371 10.609-29.285 15.914-47.742 15.914Zm154.434-120.99h10.464v22.89h-12.644c-20.056 0-30.084 10.9-30.084 32.7V180h-24.198V62.28h16.35l4.142 16.132c8.43-11.19 20.42-16.786 35.97-16.786Zm137.974 59.732c0 2.18-.146 4.869-.436 8.066H600.56c1.453 9.447 5.377 16.931 11.772 22.454 6.54 5.523 14.606 8.284 24.198 8.284 4.65 0 9.01-.654 13.08-1.962 4.069-1.453 7.63-3.415 10.682-5.886a32.56 32.56 0 0 0 7.848-9.374h25.506c-4.651 12.499-12.063 22.309-22.236 29.43-10.174 6.976-21.8 10.464-34.88 10.464-17.295 0-31.756-5.886-43.382-17.658-11.482-11.772-17.222-26.451-17.222-44.036s5.74-32.264 17.222-44.036c11.626-11.772 26.087-17.658 43.382-17.658 11.772 0 22.236 2.834 31.392 8.502 9.156 5.523 16.205 13.007 21.146 22.454 4.941 9.301 7.412 19.62 7.412 30.956Zm-59.95-40.112c-9.011 0-16.714 2.543-23.108 7.63-6.25 5.087-10.392 12.063-12.426 20.928h71.286c-1.454-5.959-3.852-11.045-7.194-15.26-3.343-4.36-7.485-7.63-12.426-9.81-4.796-2.325-10.174-3.488-16.132-3.488ZM820.709 62.28h18.748V180h-19.62l-2.398-14.388c-11.336 11.481-25.506 17.222-42.51 17.222-17.585 0-32.264-5.886-44.036-17.658-11.626-11.772-17.44-26.451-17.44-44.036 0-17.731 5.814-32.41 17.44-44.036 11.772-11.772 26.451-17.658 44.036-17.658 17.295 0 31.61 5.813 42.946 17.44l2.834-14.606Zm-71.722 86.546c7.412 7.267 16.641 10.9 27.686 10.9 11.191 0 20.347-3.633 27.468-10.9 7.267-7.412 10.9-16.641 10.9-27.686 0-11.191-3.633-20.419-10.9-27.686-7.121-7.267-16.277-10.9-27.468-10.9-7.266 0-13.879 1.671-19.838 5.014-5.813 3.343-10.391 7.993-13.734 13.952-3.342 5.813-5.014 12.353-5.014 19.62 0 11.045 3.634 20.274 10.9 27.686Zm177.515 9.156H939.8V180h-17.876c-8.574 0-15.986-1.671-22.236-5.014-6.249-3.343-11.045-8.139-14.388-14.388-3.342-6.395-5.014-13.879-5.014-22.454V82.99H859.14v-4.578l40.984-43.6h4.142V62.28h34.88v20.71h-34.662v53.192c0 6.976 1.89 12.353 5.668 16.132 3.779 3.779 9.229 5.668 16.35 5.668Zm36.44-114.014V19.116h25.07v24.852h-25.07ZM963.378 180V62.28h24.198V180h-24.198ZM1102.58 62.28h24.86L1079.04 180h-22.24l-49.7-117.72h25.51l35.31 87.418 34.66-87.418Zm153.16 59.078c0 2.18-.14 4.869-.43 8.066h-95.49c1.46 9.447 5.38 16.931 11.78 22.454 6.54 5.523 14.6 8.284 24.19 8.284 4.65 0 9.01-.654 13.08-1.962 4.07-1.453 7.63-3.415 10.69-5.886a32.566 32.566 0 0 0 7.84-9.374h25.51c-4.65 12.499-12.06 22.309-22.24 29.43-10.17 6.976-21.8 10.464-34.88 10.464-17.29 0-31.75-5.886-43.38-17.658-11.48-11.772-17.22-26.451-17.22-44.036s5.74-32.264 17.22-44.036c11.63-11.772 26.09-17.658 43.38-17.658 11.78 0 22.24 2.834 31.4 8.502 9.15 5.523 16.2 13.007 21.14 22.454 4.94 9.301 7.41 19.62 7.41 30.956Zm-59.95-40.112c-9.01 0-16.71 2.543-23.1 7.63-6.25 5.087-10.4 12.063-12.43 20.928h71.29c-1.46-5.959-3.86-11.045-7.2-15.26-3.34-4.36-7.48-7.63-12.42-9.81-4.8-2.325-10.18-3.488-16.14-3.488Z"/><path fill="#FF862D" d="M112.736.157C92.543-.173 10.976.115.998.153.446.153 0 .603 0 1.159l.01 15.535 30.47 9.857c.415.137.697.52.697.96l.073 189.358c0 .556.447 1.002.999 1.006 8.875.032 73.945.267 78.065-.004 4.425-.288 121.262 2.124 125.579-112.636C239.829.509 134.261.508 112.736.157Z"/></svg>