<svg xmlns="http://www.w3.org/2000/svg" width="141" height="25" fill="none"><path fill="#393939" d="M45.696 20.288c-2.48 0-4.544-.816-6.192-2.448-1.632-1.648-2.448-3.728-2.448-6.24s.816-4.584 2.448-6.216c1.648-1.648 3.712-2.472 6.192-2.472 1.312 0 2.528.256 3.648.768a7.547 7.547 0 0 1 2.808 2.184c.768.944 1.296 2.04 1.584 3.288h-2.784c-.4-1.12-1.064-1.992-1.992-2.616-.928-.64-2.016-.96-3.264-.96-1.68 0-3.072.568-4.176 1.704-1.104 1.136-1.656 2.584-1.656 4.344 0 1.744.552 3.184 1.656 4.32 1.104 1.12 2.496 1.68 4.176 1.68 1.28 0 2.392-.336 3.336-1.008.944-.688 1.6-1.624 1.968-2.808h2.808c-.432 1.968-1.384 3.544-2.856 4.728-1.472 1.168-3.224 1.752-5.256 1.752Zm17.002-13.32h1.152v2.52h-1.392c-2.208 0-3.312 1.2-3.312 3.6V20h-2.664V7.04h1.8l.456 1.776c.928-1.232 2.248-1.848 3.96-1.848Zm15.19 6.576c0 .24-.016.536-.048.888H67.328c.16 1.04.592 1.864 1.296 2.472.72.608 1.608.912 2.664.912a4.68 4.68 0 0 0 1.44-.216c.448-.16.84-.376 1.176-.648.352-.288.64-.632.864-1.032h2.808c-.512 1.376-1.328 2.456-2.448 3.24-1.12.768-2.4 1.152-3.84 1.152-1.904 0-3.496-.648-4.776-1.944-1.264-1.296-1.896-2.912-1.896-4.848s.632-3.552 1.896-4.848c1.28-1.296 2.872-1.944 4.776-1.944 1.296 0 2.448.312 3.456.936a6.181 6.181 0 0 1 2.328 2.472c.544 1.024.816 2.16.816 3.408Zm-6.6-4.416c-.992 0-1.84.28-2.544.84-.688.56-1.144 1.328-1.368 2.304h7.848c-.16-.656-.424-1.216-.792-1.68a3.46 3.46 0 0 0-1.368-1.08c-.528-.256-1.12-.384-1.776-.384ZM91.564 7.04h2.064V20h-2.16l-.264-1.584c-1.248 1.264-2.808 1.896-4.68 1.896-1.936 0-3.552-.648-4.848-1.944-1.28-1.296-1.92-2.912-1.92-4.848 0-1.952.64-3.568 1.92-4.848 1.296-1.296 2.912-1.944 4.848-1.944 1.904 0 3.48.64 4.728 1.92l.312-1.608Zm-7.896 9.528c.816.8 1.832 1.2 3.048 1.2 1.232 0 2.24-.4 3.024-1.2.8-.816 1.2-1.832 1.2-3.048 0-1.232-.4-2.248-1.2-3.048-.784-.8-1.792-1.2-3.024-1.2-.8 0-1.528.184-2.184.552-.64.368-1.144.88-1.512 1.536-.368.64-.552 1.36-.552 2.16 0 1.216.4 2.232 1.2 3.048Zm19.543 1.008h1.464V20h-1.968c-.944 0-1.76-.184-2.448-.552a3.782 3.782 0 0 1-1.584-1.584c-.368-.704-.552-1.528-.552-2.472V9.32h-2.328v-.504l4.512-4.8h.456V7.04h3.84v2.28h-3.816v5.856c0 .768.208 1.36.624 1.776.416.416 1.016.624 1.8.624Zm4.012-12.552V2.288h2.76v2.736h-2.76ZM107.271 20V7.04h2.664V20h-2.664Zm15.325-12.96h2.736L120.004 20h-2.448l-5.472-12.96h2.808l3.888 9.624 3.816-9.624Zm16.862 6.504c0 .24-.016.536-.048.888h-10.512c.16 1.04.592 1.864 1.296 2.472.72.608 1.608.912 2.664.912a4.68 4.68 0 0 0 1.44-.216c.448-.16.84-.376 1.176-.648.352-.288.64-.632.864-1.032h2.808c-.512 1.376-1.328 2.456-2.448 3.24-1.12.768-2.4 1.152-3.84 1.152-1.904 0-3.496-.648-4.776-1.944-1.264-1.296-1.896-2.912-1.896-4.848s.632-3.552 1.896-4.848c1.28-1.296 2.872-1.944 4.776-1.944 1.296 0 2.448.312 3.456.936a6.181 6.181 0 0 1 2.328 2.472c.544 1.024.816 2.16.816 3.408Zm-6.6-4.416c-.992 0-1.84.28-2.544.84-.688.56-1.144 1.328-1.368 2.304h7.848c-.16-.656-.424-1.216-.792-1.68a3.46 3.46 0 0 0-1.368-1.08c-.528-.256-1.12-.384-1.776-.384Z"/><path fill="#FF862D" d="M12.42.017C10.195-.019 1.21.013.11.017a.11.11 0 0 0-.11.11l.001 1.71 3.357 1.086a.111.111 0 0 1 .077.106l.008 20.846c0 .062.049.11.11.111.978.004 8.146.03 8.6 0 .488-.032 13.36.234 13.835-12.4C26.422.056 14.791.056 12.42.017Z"/></svg>