<svg width="1265" height="229" viewBox="0 0 1265 229" fill="none" xmlns="http://www.w3.org/2000/svg">
<path d="M404.072 182.616C381.545 182.616 362.797 175.204 347.828 160.38C333.004 145.411 325.592 126.517 325.592 103.7C325.592 80.8827 333.004 62.062 347.828 47.238C362.797 32.2687 381.545 24.784 404.072 24.784C415.989 24.784 427.035 27.1093 437.208 31.76C447.381 36.4107 455.883 43.0233 462.714 51.598C469.69 60.1727 474.486 70.128 477.102 81.464H451.814C448.181 71.2907 442.149 63.37 433.72 57.702C425.291 51.8887 415.408 48.982 404.072 48.982C388.812 48.982 376.168 54.1413 366.14 64.46C356.112 74.7787 351.098 87.9313 351.098 103.918C351.098 119.759 356.112 132.839 366.14 143.158C376.168 153.331 388.812 158.418 404.072 158.418C415.699 158.418 425.799 155.366 434.374 149.262C442.949 143.013 448.907 134.511 452.25 123.756H477.756C473.832 141.632 465.185 155.947 451.814 166.702C438.443 177.311 422.529 182.616 404.072 182.616ZM558.506 61.626H568.97V84.516H556.326C536.27 84.516 526.242 95.416 526.242 117.216V180H502.044V62.28H518.394L522.536 78.412C530.966 67.2213 542.956 61.626 558.506 61.626ZM696.48 121.358C696.48 123.538 696.334 126.227 696.044 129.424H600.56C602.013 138.871 605.937 146.355 612.332 151.878C618.872 157.401 626.938 160.162 636.53 160.162C641.18 160.162 645.54 159.508 649.61 158.2C653.679 156.747 657.24 154.785 660.292 152.314C663.489 149.698 666.105 146.573 668.14 142.94H693.646C688.995 155.439 681.583 165.249 671.41 172.37C661.236 179.346 649.61 182.834 636.53 182.834C619.235 182.834 604.774 176.948 593.148 165.176C581.666 153.404 575.926 138.725 575.926 121.14C575.926 103.555 581.666 88.876 593.148 77.104C604.774 65.332 619.235 59.446 636.53 59.446C648.302 59.446 658.766 62.28 667.922 67.948C677.078 73.4707 684.127 80.9553 689.068 90.402C694.009 99.7033 696.48 110.022 696.48 121.358ZM636.53 81.246C627.519 81.246 619.816 83.7893 613.422 88.876C607.172 93.9627 603.03 100.939 600.996 109.804H672.282C670.828 103.845 668.43 98.7587 665.088 94.544C661.745 90.184 657.603 86.914 652.662 84.734C647.866 82.4087 642.488 81.246 636.53 81.246ZM820.709 62.28H839.457V180H819.837L817.439 165.612C806.103 177.093 791.933 182.834 774.929 182.834C757.344 182.834 742.665 176.948 730.893 165.176C719.267 153.404 713.453 138.725 713.453 121.14C713.453 103.409 719.267 88.7307 730.893 77.104C742.665 65.332 757.344 59.446 774.929 59.446C792.224 59.446 806.539 65.2593 817.875 76.886L820.709 62.28ZM748.987 148.826C756.399 156.093 765.628 159.726 776.673 159.726C787.864 159.726 797.02 156.093 804.141 148.826C811.408 141.414 815.041 132.185 815.041 121.14C815.041 109.949 811.408 100.721 804.141 93.454C797.02 86.1873 787.864 82.554 776.673 82.554C769.407 82.554 762.794 84.2253 756.835 87.568C751.022 90.9107 746.444 95.5613 743.101 101.52C739.759 107.333 738.087 113.873 738.087 121.14C738.087 132.185 741.721 141.414 748.987 148.826ZM926.502 157.982H939.8V180H921.924C913.35 180 905.938 178.329 899.688 174.986C893.439 171.643 888.643 166.847 885.3 160.598C881.958 154.203 880.286 146.719 880.286 138.144V82.99H859.14V78.412L900.124 34.812H904.266V62.28H939.146V82.99H904.484V136.182C904.484 143.158 906.374 148.535 910.152 152.314C913.931 156.093 919.381 157.982 926.502 157.982ZM962.942 43.968V19.116H988.012V43.968H962.942ZM963.378 180V62.28H987.576V180H963.378ZM1102.58 62.28H1127.44L1079.04 180H1056.8L1007.1 62.28H1032.61L1067.92 149.698L1102.58 62.28ZM1255.74 121.358C1255.74 123.538 1255.6 126.227 1255.31 129.424H1159.82C1161.28 138.871 1165.2 146.355 1171.6 151.878C1178.14 157.401 1186.2 160.162 1195.79 160.162C1200.44 160.162 1204.8 159.508 1208.87 158.2C1212.94 156.747 1216.5 154.785 1219.56 152.314C1222.75 149.698 1225.37 146.573 1227.4 142.94H1252.91C1248.26 155.439 1240.85 165.249 1230.67 172.37C1220.5 179.346 1208.87 182.834 1195.79 182.834C1178.5 182.834 1164.04 176.948 1152.41 165.176C1140.93 153.404 1135.19 138.725 1135.19 121.14C1135.19 103.555 1140.93 88.876 1152.41 77.104C1164.04 65.332 1178.5 59.446 1195.79 59.446C1207.57 59.446 1218.03 62.28 1227.19 67.948C1236.34 73.4707 1243.39 80.9553 1248.33 90.402C1253.27 99.7033 1255.74 110.022 1255.74 121.358ZM1195.79 81.246C1186.78 81.246 1179.08 83.7893 1172.69 88.876C1166.44 93.9627 1162.29 100.939 1160.26 109.804H1231.55C1230.09 103.845 1227.69 98.7587 1224.35 94.544C1221.01 90.184 1216.87 86.914 1211.93 84.734C1207.13 82.4087 1201.75 81.246 1195.79 81.246Z" fill="#393939"/>
<path d="M112.736 0.156951C92.5426 -0.17375 10.9766 0.11491 0.997949 0.153022C0.446399 0.153022 0 0.603298 0 1.15888L0.010476 16.6936L30.4807 26.5513C30.8954 26.6883 31.177 27.0714 31.177 27.5107L31.2505 216.869C31.2505 217.425 31.6969 217.871 32.249 217.875C41.124 217.907 106.194 218.142 110.314 217.871C114.739 217.583 231.576 219.995 235.893 105.235C239.829 0.508617 134.261 0.508345 112.736 0.156951Z" fill="#FF862D"/>
</svg>
