<svg xmlns="http://www.w3.org/2000/svg" width="346" height="40" fill="none"><g clip-path="url(#a)"><path fill="#2295D1" d="M127.546 39.849c-1.968-.024-3.535-.048-3.478-.062.075-.01.094-3.004.094-14.893V10.016l3.459-.02 3.465-.018v.89c0 .69.019.895.099.895.056 0 .34-.19.632-.428 2.369-1.905 6.145-2.262 9.071-.862 2.69 1.285 4.342 3.509 5.05 6.794.227 1.071.283 3.514.109 4.723-.387 2.666-1.378 4.79-2.936 6.299a7.408 7.408 0 0 1-2.284 1.595c-1.392.666-2.94.942-4.781.857-1.694-.072-2.94-.405-4.125-1.1-.628-.371-.793-.414-.868-.224-.024.072-.048 2.424-.048 5.233 0 4.013.024 5.113.095 5.142.056.019.08.047.061.066-.023.015-1.652.01-3.615-.014v.005Zm8.009-14.155a3.641 3.641 0 0 0 2.265-1.557c.741-1.057 1.053-2.19 1.058-3.918 0-1.38-.137-2.085-.604-3.066a3.803 3.803 0 0 0-.879-1.268 3.755 3.755 0 0 0-1.307-.808c-.344-.129-.613-.157-1.354-.162a3.787 3.787 0 0 0-1.534.205c-.665.224-1.369.614-1.826 1.01l-.288.251-.01 4.019c0 2.214.005 4.032.019 4.047.014.014.458.252.991.528 1.492.79 2.327.962 3.469.714v.005Zm81.587 14.17-3.497-.02.019-14.916.019-14.917 3.459-.019 3.464-.019v.89c0 1.057.028 1.081.642.548 2.303-1.986 6.216-2.362 9.25-.9 2.209 1.062 3.705 2.776 4.55 5.209.486 1.4.765 3.447.665 4.956-.344 5.385-3.067 9.013-7.419 9.898a15.192 15.192 0 0 1-3.502.124 8.54 8.54 0 0 1-3.45-1.128 1.84 1.84 0 0 0-.59-.276c-.151 0-.151.042-.132 5.313l.024 5.294c0-.01-1.576-.028-3.502-.038Zm7.943-14.18a3.373 3.373 0 0 0 1.826-1.047c1.095-1.11 1.633-2.88 1.511-4.966-.142-2.37-1.147-4.013-2.799-4.59a3.46 3.46 0 0 0-1.406-.175 3.648 3.648 0 0 0-1.496.218c-.675.234-1.478.681-1.869 1.048l-.246.233v7.999l.246.157c.141.086.632.348 1.099.586 1.19.609 2.091.761 3.134.538ZM4.54 21.486c-.019-5.156-.042-11.284-.042-13.616-.005-3.966-.014-4.252-.142-4.319A75.348 75.348 0 0 0 .11 2.203C.014 2.208 0 2.036 0 1.07L.01-.073l7.456-.014c8.486-.024 9.944.024 12.79.41 6.47.87 10.421 3.584 12.045 8.26.717 2.08 1.02 4.48.882 7.065-.184 3.428-1.123 6.228-2.912 8.66-2.17 2.953-5.805 5.114-10.043 5.98-2.36.486-2.638.5-9.43.534l-6.201.043-.047-9.38h-.01Zm13.45 4.761c3.39-.595 5.362-2.2 6.415-5.203.557-1.595.826-3.81.755-6.214-.07-2.176-.33-3.628-.897-5.108-1.232-3.176-3.733-4.885-7.664-5.252-1.204-.11-3.592-.1-3.71.02-.07.07-.094 2.613-.094 10.964 0 5.98.028 10.903.061 10.936.104.105 4.38-.01 5.135-.143Zm26.506 4.438c-4.073-.315-7.292-2.276-8.835-5.38-1.51-3.047-1.53-7.109-.043-10.189 1.331-2.766 3.965-4.595 7.561-5.252a22.401 22.401 0 0 1 4.97-.085c4.734.61 7.924 3.209 8.948 7.298.321 1.267.416 2.2.364 3.6-.218 5.856-3.993 9.57-10.195 10.017-1.18.086-1.524.086-2.77-.01Zm2.468-5.223c1.454-.314 2.572-1.505 3.02-3.223.175-.677.241-2.68.114-3.476-.32-2.024-1.369-3.357-2.973-3.78a5.836 5.836 0 0 0-2.237-.005c-1.898.51-2.94 2.142-3.068 4.818-.142 3.047 1.067 5.185 3.205 5.666.575.133 1.316.133 1.94 0Zm62.294 5.232c-4.786-.405-8.16-2.828-9.44-6.784-.42-1.3-.537-2.143-.533-3.766 0-2.062.307-3.49 1.081-5.07 1.208-2.467 3.493-4.22 6.485-4.981 2.341-.52 4.761-.57 7.122-.143 3.195.638 5.776 2.471 7.065 5.004 1.534 3.023 1.571 7.199.089 10.236-1.444 2.952-4.276 4.866-7.985 5.385a22.217 22.217 0 0 1-3.884.12Zm2.86-5.347c1.298-.461 2.152-1.5 2.595-3.146.142-.529.166-.829.166-2.02 0-1.19-.024-1.49-.166-2.018-.575-2.166-1.935-3.29-3.973-3.295-2.157 0-3.564 1.252-4.05 3.614-.207 1.019-.17 2.847.08 3.78.458 1.72 1.52 2.871 2.955 3.2.651.152 1.798.095 2.393-.114Zm73.927 5.328a7.186 7.186 0 0 1-1.18-.285c-2.143-.748-3.275-2.367-3.275-4.704 0-2.143.868-3.58 2.921-4.823.883-.538 2.454-1.153 5.569-2.181 1.416-.471 2.747-.938 2.959-1.038l.383-.19-.015-.657c-.028-1.238-.453-1.943-1.453-2.414-.501-.238-.595-.253-1.553-.286a11.754 11.754 0 0 0-1.652.067 12.42 12.42 0 0 0-4.271 1.68c-.642.427-1.251.9-1.822 1.42a1.389 1.389 0 0 1-.288.247c-.132.066-.141-.067-.141-2.533v-2.6l.519-.338c1.595-1.038 3.544-1.757 5.866-2.161.821-.143 1.265-.172 3.002-.172 2.095-.004 2.53.038 3.809.357 1.368.348 2.817 1.143 3.525 1.933.699.786 1.171 1.81 1.35 2.943.047.314.08 2.276.08 5.166 0 3.018.033 4.823.085 5.118.104.571.307.919.614 1.047.33.134 1.014.057 1.604-.19a3.54 3.54 0 0 1 .501-.181l-.019 1.78-.024 1.762-.783.305a13.04 13.04 0 0 1-4.512 1c-2.138.09-3.247-.381-3.809-1.629-.118-.257-.25-.447-.316-.447-.269.122-.521.28-.751.466-1.51 1.105-3.36 1.648-5.545 1.62-.462-.005-.923-.03-1.383-.077l.005-.005Zm5.663-3.956a11.51 11.51 0 0 0 1.18-.695l.571-.405V20.61h-.174c-.213 0-2.157.871-2.95 1.324-1.232.704-1.935 1.652-2.011 2.709-.07 1.024.354 1.833 1.176 2.228.325.152.481.181 1 .162.424.006.843-.1 1.213-.31l-.005-.004Zm49.858 3.999a7.125 7.125 0 0 1-2.115-.628c-1.708-.829-2.619-2.381-2.614-4.462a5.11 5.11 0 0 1 2.152-4.246c1.18-.881 2.322-1.367 6.23-2.657 2.737-.905 3.426-1.171 3.492-1.357.094-.238-.113-1.452-.307-1.862a2.61 2.61 0 0 0-1.326-1.204c-.396-.157-.557-.176-1.784-.172-1.133 0-1.454.029-2.025.172-1.864.476-3.624 1.428-5.262 2.87l-.477.43-.018-1.8c-.01-.873-.016-1.746-.019-2.619v-.829l.873-.523a16.038 16.038 0 0 1 5.621-1.971c1.217-.195 3.955-.243 5.116-.09 2.279.304 3.761.937 4.927 2.104.689.69 1.005 1.19 1.293 2.056.331.99.373 1.838.345 6.595-.029 4.918-.01 5.113.434 5.565.226.229.302.257.68.257a4.151 4.151 0 0 0 1.529-.428c.127-.052.137.057.137 1.723v1.786l-.902.347a12.503 12.503 0 0 1-4.484.967c-2.142.095-3.256-.39-3.775-1.652-.118-.286-.217-.42-.307-.42-.232.09-.447.22-.637.382-.991.761-2.133 1.261-3.445 1.523-.614.124-2.832.22-3.332.143Zm5.503-4.047a9.053 9.053 0 0 0 1.17-.714l.519-.386V23.21c0-1.3-.023-2.414-.047-2.485-.075-.196-.264-.148-1.387.357-1.94.866-2.974 1.604-3.432 2.447-.557 1.028-.344 2.485.444 3.095.43.333.779.428 1.463.395.447.004.886-.116 1.27-.348Zm21.002 4.009c-4.583-.352-7.953-2.833-9.274-6.827a15.125 15.125 0 0 1-.708-5.428c.132-3.39.774-6.199 1.973-8.618 2.204-4.442 6.055-7.056 11.454-7.77.925-.119 7.424-.419 7.499-.343.048.048-.424 4.814-.495 4.885-.807.078-1.616.126-2.426.143-3.478.133-4.937.314-6.362.786-1.85.61-2.917 1.585-3.455 3.166-.151.438-.189.862-.08.862.172-.064.338-.144.496-.238 1.17-.638 2.506-.89 4.393-.824 5.725.19 9.185 3.08 9.864 8.232.298 2.28-.094 4.68-1.062 6.565-1.633 3.176-4.851 5.1-9.061 5.428-.918.09-1.843.086-2.761-.01l.005-.009Zm3.011-5.37c1.335-.486 2.18-1.59 2.529-3.295.133-.629.151-.943.118-1.952-.047-1.338-.141-1.819-.556-2.7a3.592 3.592 0 0 0-.952-1.27 3.548 3.548 0 0 0-1.404-.73c-.538-.142-1.977-.142-2.515 0-1.369.367-2.284 1.372-2.719 2.981-.136.495-.16.814-.165 1.99 0 1.567.109 2.152.586 3.128a4.125 4.125 0 0 0 1.604 1.667c.982.485 2.445.561 3.474.18Zm21.058 5.38c-6.154-.51-9.944-4.49-9.948-10.47-.005-1.719.207-2.933.759-4.38 1.298-3.41 4.465-5.609 8.76-6.095 1.034-.114 3.134-.095 4.167.048 4.743.619 7.929 3.29 8.934 7.484.501 2.09.397 4.704-.269 6.714-1.194 3.604-4.214 5.96-8.419 6.58a21.625 21.625 0 0 1-3.984.119Zm2.473-5.228c1.539-.333 2.686-1.628 3.063-3.476.166-.814.199-2.523.067-3.285-.439-2.5-1.869-3.837-4.106-3.833-1.487 0-2.573.572-3.309 1.738-.613.971-.849 1.962-.84 3.619 0 .966.033 1.333.175 1.895.627 2.58 2.525 3.856 4.955 3.342h-.005Zm39.904 5.223c-4.177-.324-7.424-2.38-8.972-5.685-1.071-2.28-1.321-5.275-.656-7.908.977-3.88 3.861-6.428 8.165-7.208.807-.143 1.227-.172 2.723-.172 1.917 0 2.511.086 3.856.538 3.21 1.09 5.428 3.857 6.056 7.56.07.4.127.872.132 1.048 0 .243.019.281.07.162.038-.095.071.448.09 1.357l.024 1.51-7.132-.02c-8.141-.024-7.343-.105-7.069.748.226.714.674 1.366 1.406 2.061 1.133 1.076 2.681 1.667 4.361 1.671 2.029.005 4.101-.466 6.73-1.523.58-.238 1.067-.42 1.076-.405.009.02 0 .976-.009 2.133l-.019 2.105-.755.357c-1.931.918-4.418 1.509-7.066 1.68a16.851 16.851 0 0 1-3.011-.01Zm4.861-12.84c-.037-1.405-.698-2.71-1.699-3.353a3.547 3.547 0 0 0-2.076-.557c-1.293 0-2.086.31-2.912 1.129a4.18 4.18 0 0 0-1.109 2.037c-.151.586-.194 1.186-.095 1.286.024.028 1.817.043 3.979.028l3.927-.019-.015-.552ZM59.466 20.337l-.023-10.189c0-.124.207-.133 3.455-.133h3.464l.037 3.761.038 3.766.453-.024a2.632 2.632 0 0 0 1.7-.723c.566-.524.967-1.157 1.84-2.914.401-.82.85-1.68 1-1.905a3.872 3.872 0 0 1 1.45-1.318c.957-.477 2.76-.715 5.097-.667l1.227.024.018 2.57.024 2.567-.816.048c-1.308.071-1.586.271-2.35 1.67-.567 1.039-1.143 1.63-2.011 2.072a4.477 4.477 0 0 1-1.062.39c-.297.043-.378.081-.378.196 0 .085.066.157.17.18.755.157 1.005.239 1.369.448.51.295.99.79 1.505 1.543a323.875 323.875 0 0 1 4.876 8.646c0 .019-1.723.038-3.823.038h-3.828l-1.472-2.966a67.19 67.19 0 0 0-1.855-3.552c-.741-1.143-1.572-1.7-2.596-1.767-.533-.033-.557-.028-.604.143-.023.105-.047 1.976-.047 4.166v3.976H59.48l-.015-10.046Zm26.619 2.637c0-7.241 0-7.408-.147-7.484-.094-.052-1.203-.08-3.072-.08H79.94l-.024-2.657a81.3 81.3 0 0 1 0-2.714c.02-.034 4.352-.062 9.638-.062h9.609v5.427h-2.927c-1.873 0-2.982.034-3.077.086-.146.076-.15.238-.15 7.485v7.413h-6.924v-7.413Zm72.129-2.675c-.002-3.396-.008-6.793-.019-10.189 0-.071.745-.095 3.473-.114l3.479-.02.019 3.51.023 3.513 3.573.02c1.968.014 3.657.004 3.752-.02l.17-.043v-6.98h6.923v20.407h-6.919l-.018-3.938-.024-3.937h-7.457l-.038 3.918-.042 3.919-3.441.019-3.44.019-.01-10.084h-.004Zm153.135 2.675c0-7.241 0-7.408-.146-7.484-.095-.052-1.204-.08-3.077-.08h-2.927l-.018-2.657a72.215 72.215 0 0 1 0-2.714c.018-.034 4.351-.062 9.637-.062h9.609v5.427h-2.926c-1.874 0-2.983.034-3.077.086-.147.076-.151.238-.151 7.485v7.413h-6.919v-7.413h-.005Z"/></g><defs><clipPath id="a"><path fill="#fff" d="M0 0h346v40H0z"/></clipPath></defs></svg>