<svg width="141" height="25" viewBox="0 0 141 25" fill="none" xmlns="http://www.w3.org/2000/svg">
<path d="M45.696 20.288C43.216 20.288 41.152 19.472 39.504 17.84C37.872 16.192 37.056 14.112 37.056 11.6C37.056 9.088 37.872 7.016 39.504 5.384C41.152 3.736 43.216 2.912 45.696 2.912C47.008 2.912 48.224 3.168 49.344 3.68C50.464 4.192 51.4 4.92 52.152 5.864C52.92 6.808 53.448 7.904 53.736 9.152H50.952C50.552 8.032 49.888 7.16 48.96 6.536C48.032 5.896 46.944 5.576 45.696 5.576C44.016 5.576 42.624 6.144 41.52 7.28C40.416 8.416 39.864 9.864 39.864 11.624C39.864 13.368 40.416 14.808 41.52 15.944C42.624 17.064 44.016 17.624 45.696 17.624C46.976 17.624 48.088 17.288 49.032 16.616C49.976 15.928 50.632 14.992 51 13.808H53.808C53.376 15.776 52.424 17.352 50.952 18.536C49.48 19.704 47.728 20.288 45.696 20.288ZM62.6979 6.968H63.8499V9.488H62.4579C60.2499 9.488 59.1459 10.688 59.1459 13.088V20H56.4819V7.04H58.2819L58.7379 8.816C59.6659 7.584 60.9859 6.968 62.6979 6.968ZM77.8877 13.544C77.8877 13.784 77.8717 14.08 77.8397 14.432H67.3277C67.4877 15.472 67.9197 16.296 68.6237 16.904C69.3437 17.512 70.2317 17.816 71.2877 17.816C71.7997 17.816 72.2797 17.744 72.7277 17.6C73.1757 17.44 73.5677 17.224 73.9037 16.952C74.2557 16.664 74.5437 16.32 74.7677 15.92H77.5757C77.0637 17.296 76.2477 18.376 75.1277 19.16C74.0077 19.928 72.7277 20.312 71.2877 20.312C69.3837 20.312 67.7917 19.664 66.5117 18.368C65.2477 17.072 64.6157 15.456 64.6157 13.52C64.6157 11.584 65.2477 9.968 66.5117 8.672C67.7917 7.376 69.3837 6.728 71.2877 6.728C72.5837 6.728 73.7357 7.04 74.7437 7.664C75.7517 8.272 76.5277 9.096 77.0717 10.136C77.6157 11.16 77.8877 12.296 77.8877 13.544ZM71.2877 9.128C70.2957 9.128 69.4477 9.408 68.7437 9.968C68.0557 10.528 67.5997 11.296 67.3757 12.272H75.2237C75.0637 11.616 74.7997 11.056 74.4317 10.592C74.0637 10.112 73.6077 9.752 73.0637 9.512C72.5357 9.256 71.9437 9.128 71.2877 9.128ZM91.5643 7.04H93.6283V20H91.4683L91.2043 18.416C89.9563 19.68 88.3963 20.312 86.5243 20.312C84.5883 20.312 82.9723 19.664 81.6763 18.368C80.3963 17.072 79.7563 15.456 79.7563 13.52C79.7563 11.568 80.3963 9.952 81.6763 8.672C82.9723 7.376 84.5883 6.728 86.5243 6.728C88.4283 6.728 90.0043 7.368 91.2523 8.648L91.5643 7.04ZM83.6683 16.568C84.4843 17.368 85.5003 17.768 86.7163 17.768C87.9483 17.768 88.9563 17.368 89.7403 16.568C90.5403 15.752 90.9403 14.736 90.9403 13.52C90.9403 12.288 90.5403 11.272 89.7403 10.472C88.9563 9.672 87.9483 9.272 86.7163 9.272C85.9163 9.272 85.1883 9.456 84.5323 9.824C83.8923 10.192 83.3883 10.704 83.0203 11.36C82.6523 12 82.4683 12.72 82.4683 13.52C82.4683 14.736 82.8683 15.752 83.6683 16.568ZM103.211 17.576H104.675V20H102.707C101.763 20 100.947 19.816 100.259 19.448C99.5713 19.08 99.0433 18.552 98.6753 17.864C98.3073 17.16 98.1233 16.336 98.1233 15.392V9.32H95.7953V8.816L100.307 4.016H100.763V7.04H104.603V9.32H100.787V15.176C100.787 15.944 100.995 16.536 101.411 16.952C101.827 17.368 102.427 17.576 103.211 17.576ZM107.223 5.024V2.288H109.983V5.024H107.223ZM107.271 20V7.04H109.935V20H107.271ZM122.596 7.04H125.332L120.004 20H117.556L112.084 7.04H114.892L118.78 16.664L122.596 7.04ZM139.458 13.544C139.458 13.784 139.442 14.08 139.41 14.432H128.898C129.058 15.472 129.49 16.296 130.194 16.904C130.914 17.512 131.802 17.816 132.858 17.816C133.37 17.816 133.85 17.744 134.298 17.6C134.746 17.44 135.138 17.224 135.474 16.952C135.826 16.664 136.114 16.32 136.338 15.92H139.146C138.634 17.296 137.818 18.376 136.698 19.16C135.578 19.928 134.298 20.312 132.858 20.312C130.954 20.312 129.362 19.664 128.082 18.368C126.818 17.072 126.186 15.456 126.186 13.52C126.186 11.584 126.818 9.968 128.082 8.672C129.362 7.376 130.954 6.728 132.858 6.728C134.154 6.728 135.306 7.04 136.314 7.664C137.322 8.272 138.098 9.096 138.642 10.136C139.186 11.16 139.458 12.296 139.458 13.544ZM132.858 9.128C131.866 9.128 131.018 9.408 130.314 9.968C129.626 10.528 129.17 11.296 128.946 12.272H136.794C136.634 11.616 136.37 11.056 136.002 10.592C135.634 10.112 135.178 9.752 134.634 9.512C134.106 9.256 133.514 9.128 132.858 9.128Z" fill="white"/>
<path d="M12.42 0.017279C10.1954 -0.0191284 1.20929 0.0126506 0.109944 0.0168465C0.0491796 0.0168465 0 0.0664181 0 0.127583L0.00115414 1.83782L3.35804 2.92308C3.40373 2.93816 3.43475 2.98034 3.43475 3.0287L3.44286 23.8755C3.44286 23.9367 3.49204 23.9858 3.55286 23.9862C4.53061 23.9897 11.6994 24.0156 12.1532 23.9858C12.6408 23.9541 25.5126 24.2197 25.9882 11.5856C26.4219 0.0559945 14.7914 0.0559646 12.42 0.017279Z" fill="#FF862D"/>
</svg>
