<svg width="160" height="160" viewBox="0 0 160 160" fill="none" xmlns="http://www.w3.org/2000/svg">
<path d="M80 0L80.0155 79.9213L110.615 6.08961L80.0445 79.9335L136.568 23.4315L80.0664 79.9555L153.91 49.3852L80.0787 79.9845L160 80L80.0787 80.0155L153.91 110.615L80.0664 80.0445L136.568 136.568L80.0445 80.0664L110.615 153.91L80.0155 80.0787L80 160L79.9845 80.0787L49.3852 153.91L79.9555 80.0664L23.4315 136.568L79.9335 80.0445L6.08961 110.615L79.9213 80.0155L0 80L79.9213 79.9845L6.08961 49.3852L79.9335 79.9555L23.4315 23.4315L79.9555 79.9335L49.3852 6.08961L79.9845 79.9213L80 0Z" stroke="#FF862D" stroke-width="4"/>
</svg>
