<svg width="1280" height="240" viewBox="0 0 1280 240" fill="none" xmlns="http://www.w3.org/2000/svg">
<path d="M321.96 188.88C297.16 188.88 276.52 180.72 260.04 164.4C243.72 147.92 235.56 127.12 235.56 102C235.56 76.88 243.72 56.16 260.04 39.84C276.52 23.36 297.16 15.12 321.96 15.12C335.08 15.12 347.24 17.68 358.44 22.8C369.64 27.92 379 35.2 386.52 44.64C394.2 54.08 399.48 65.04 402.36 77.52H374.52C370.52 66.32 363.88 57.6 354.6 51.36C345.32 44.96 334.44 41.76 321.96 41.76C305.16 41.76 291.24 47.44 280.2 58.8C269.16 70.16 263.64 84.64 263.64 102.24C263.64 119.68 269.16 134.08 280.2 145.44C291.24 156.64 305.16 162.24 321.96 162.24C334.76 162.24 345.88 158.88 355.32 152.16C364.76 145.28 371.32 135.92 375 124.08H403.08C398.76 143.76 389.24 159.52 374.52 171.36C359.8 183.04 342.28 188.88 321.96 188.88ZM491.979 55.68H503.499V80.88H489.579C467.499 80.88 456.459 92.88 456.459 116.88V186H429.819V56.4H447.819L452.379 74.16C461.659 61.84 474.859 55.68 491.979 55.68ZM643.877 121.44C643.877 123.84 643.717 126.8 643.397 130.32H538.277C539.877 140.72 544.197 148.96 551.237 155.04C558.437 161.12 567.317 164.16 577.877 164.16C582.997 164.16 587.797 163.44 592.277 162C596.757 160.4 600.677 158.24 604.037 155.52C607.557 152.64 610.437 149.2 612.677 145.2H640.757C635.637 158.96 627.477 169.76 616.277 177.6C605.077 185.28 592.277 189.12 577.877 189.12C558.837 189.12 542.917 182.64 530.117 169.68C517.477 156.72 511.157 140.56 511.157 121.2C511.157 101.84 517.477 85.68 530.117 72.72C542.917 59.76 558.837 53.28 577.877 53.28C590.837 53.28 602.357 56.4 612.437 62.64C622.517 68.72 630.277 76.96 635.717 87.36C641.157 97.6 643.877 108.96 643.877 121.44ZM577.877 77.28C567.957 77.28 559.477 80.08 552.437 85.68C545.557 91.28 540.997 98.96 538.757 108.72H617.237C615.637 102.16 612.997 96.56 609.317 91.92C605.637 87.12 601.077 83.52 595.637 81.12C590.357 78.56 584.437 77.28 577.877 77.28ZM780.643 56.4H801.283V186H779.683L777.043 170.16C764.563 182.8 748.963 189.12 730.243 189.12C710.883 189.12 694.723 182.64 681.763 169.68C668.963 156.72 662.563 140.56 662.563 121.2C662.563 101.68 668.963 85.52 681.763 72.72C694.723 59.76 710.883 53.28 730.243 53.28C749.283 53.28 765.043 59.68 777.523 72.48L780.643 56.4ZM701.683 151.68C709.843 159.68 720.003 163.68 732.163 163.68C744.483 163.68 754.563 159.68 762.403 151.68C770.403 143.52 774.403 133.36 774.403 121.2C774.403 108.88 770.403 98.72 762.403 90.72C754.563 82.72 744.483 78.72 732.163 78.72C724.163 78.72 716.883 80.56 710.323 84.24C703.923 87.92 698.883 93.04 695.203 99.6C691.523 106 689.683 113.2 689.683 121.2C689.683 133.36 693.683 143.52 701.683 151.68ZM897.113 161.76H911.753V186H892.073C882.633 186 874.473 184.16 867.593 180.48C860.713 176.8 855.433 171.52 851.753 164.64C848.073 157.6 846.233 149.36 846.233 139.92V79.2H822.953V74.16L868.073 26.16H872.633V56.4H911.033V79.2H872.873V137.76C872.873 145.44 874.953 151.36 879.113 155.52C883.273 159.68 889.273 161.76 897.113 161.76ZM937.23 36.24V8.87999H964.83V36.24H937.23ZM937.71 186V56.4H964.35V186H937.71ZM1090.96 56.4H1118.32L1065.04 186H1040.56L985.843 56.4H1013.92L1052.8 152.64L1090.96 56.4ZM1259.58 121.44C1259.58 123.84 1259.42 126.8 1259.1 130.32H1153.98C1155.58 140.72 1159.9 148.96 1166.94 155.04C1174.14 161.12 1183.02 164.16 1193.58 164.16C1198.7 164.16 1203.5 163.44 1207.98 162C1212.46 160.4 1216.38 158.24 1219.74 155.52C1223.26 152.64 1226.14 149.2 1228.38 145.2H1256.46C1251.34 158.96 1243.18 169.76 1231.98 177.6C1220.78 185.28 1207.98 189.12 1193.58 189.12C1174.54 189.12 1158.62 182.64 1145.82 169.68C1133.18 156.72 1126.86 140.56 1126.86 121.2C1126.86 101.84 1133.18 85.68 1145.82 72.72C1158.62 59.76 1174.54 53.28 1193.58 53.28C1206.54 53.28 1218.06 56.4 1228.14 62.64C1238.22 68.72 1245.98 76.96 1251.42 87.36C1256.86 97.6 1259.58 108.96 1259.58 121.44ZM1193.58 77.28C1183.66 77.28 1175.18 80.08 1168.14 85.68C1161.26 91.28 1156.7 98.96 1154.46 108.72H1232.94C1231.34 102.16 1228.7 96.56 1225.02 91.92C1221.34 87.12 1216.78 83.52 1211.34 81.12C1206.06 78.56 1200.14 77.28 1193.58 77.28Z" fill="#393939"/>
<path d="M83.5964 23.1152C68.6227 22.8725 8.13946 23.0843 0.740004 23.1123C0.331016 23.1123 0 23.4428 0 23.8506L0.00776823 35.2522L22.6022 42.4872C22.9097 42.5878 23.1185 42.8689 23.1185 43.1913L23.1731 182.17C23.1731 182.578 23.5041 182.905 23.9135 182.908C30.4945 182.932 78.7458 183.104 81.8005 182.905C85.082 182.694 171.72 184.464 174.92 100.237C177.839 23.3733 99.5578 23.3731 83.5964 23.1152Z" fill="#FF862D"/>
</svg>
