<svg width="346" height="40" viewBox="0 0 346 40" fill="none" xmlns="http://www.w3.org/2000/svg">
<g clip-path="url(#clip0_168:145)">
<path d="M127.546 39.8488C125.578 39.825 124.011 39.8012 124.068 39.7869C124.143 39.7774 124.162 36.7827 124.162 24.8942V10.0158L127.621 9.99678L131.086 9.97774V10.8681C131.086 11.5584 131.105 11.7631 131.185 11.7631C131.241 11.7631 131.525 11.5727 131.817 11.3347C134.186 9.43021 137.962 9.07313 140.888 10.4729C143.578 11.7584 145.23 13.9818 145.938 17.267C146.165 18.3382 146.221 20.7807 146.047 21.99C145.66 24.6562 144.669 26.7796 143.111 28.2889C142.456 28.9612 141.681 29.5024 140.827 29.8839C139.435 30.5504 137.887 30.8265 136.046 30.7408C134.352 30.6694 133.106 30.3362 131.921 29.641C131.293 29.2697 131.128 29.2268 131.053 29.4173C131.029 29.4887 131.005 31.8407 131.005 34.6497C131.005 38.6633 131.029 39.7631 131.1 39.7917C131.156 39.8107 131.18 39.8393 131.161 39.8583C131.138 39.8726 129.509 39.8679 127.546 39.8441V39.8488ZM135.555 25.6941C136.482 25.4924 137.295 24.9339 137.82 24.1372C138.561 23.0803 138.873 21.9471 138.878 20.2188C138.878 18.8381 138.741 18.1335 138.274 17.1527C138.07 16.6739 137.771 16.2425 137.395 15.8854C137.019 15.5282 136.574 15.253 136.088 15.0769C135.744 14.9483 135.475 14.9197 134.734 14.915C134.214 14.8769 133.692 14.9466 133.2 15.1197C132.535 15.3435 131.831 15.7339 131.374 16.1291L131.086 16.3814L131.076 20.3998C131.076 22.6137 131.081 24.4324 131.095 24.4467C131.109 24.461 131.553 24.699 132.086 24.9752C133.578 25.7655 134.413 25.9369 135.555 25.6893V25.6941ZM217.142 39.8631L213.645 39.8441L213.664 24.9276L213.683 10.0111L217.142 9.99202L220.606 9.97298V10.8633C220.606 11.9203 220.634 11.9441 221.248 11.4108C223.551 9.42545 227.464 9.04933 230.498 10.511C232.707 11.5727 234.203 13.2867 235.048 15.7196C235.534 17.1194 235.813 19.1666 235.713 20.6759C235.369 26.0607 232.646 29.6886 228.294 30.5742C227.136 30.7504 225.961 30.7919 224.792 30.698C223.576 30.574 222.4 30.1893 221.342 29.5696C221.163 29.4432 220.964 29.3498 220.752 29.2935C220.601 29.2935 220.601 29.3363 220.62 34.6069L220.644 39.9012C220.644 39.8917 219.068 39.8726 217.142 39.8631ZM225.085 25.6846C225.789 25.5398 226.428 25.1729 226.911 24.6371C228.006 23.5278 228.544 21.7567 228.422 19.6713C228.28 17.3003 227.275 15.6577 225.623 15.0816C225.171 14.9264 224.692 14.8665 224.217 14.9055C223.708 14.8733 223.199 14.9478 222.721 15.1245C222.046 15.3578 221.243 15.8053 220.852 16.1719L220.606 16.4052V24.4038L220.852 24.561C220.993 24.6467 221.484 24.9085 221.951 25.1466C223.141 25.756 224.042 25.9083 225.085 25.6846ZM4.54021 21.4853C4.52133 16.329 4.49774 10.2015 4.49774 7.86858C4.49302 3.90259 4.48358 3.61692 4.35615 3.55027C2.95366 3.05929 1.53718 2.60997 0.10855 2.20288C0.0141587 2.20764 0 2.03624 0 1.06974L0.00943911 -0.0729206L7.46634 -0.0872038C15.9521 -0.111009 17.4104 -0.0633984 20.2563 0.32225C26.7268 1.19353 30.6771 3.90735 32.3006 8.58274C33.018 10.6633 33.3201 13.0629 33.1832 15.6482C32.9991 19.0762 32.0599 21.8757 30.2712 24.3086C28.1002 27.2605 24.4662 29.422 20.228 30.2885C17.8682 30.7742 17.5898 30.7885 10.7983 30.8218L4.59685 30.8646L4.54965 21.4853H4.54021ZM17.9909 26.2464C21.3796 25.6512 23.3524 24.0468 24.4048 21.0425C24.9617 19.4475 25.2307 17.2336 25.1599 14.8293C25.0892 12.6535 24.8296 11.2013 24.2632 9.72064C23.0314 6.54499 20.5301 4.83576 16.5987 4.46916C15.3952 4.35965 13.0071 4.36918 12.8891 4.4882C12.8183 4.55962 12.7947 7.10204 12.7947 15.453C12.7947 21.4329 12.823 26.3559 12.8561 26.3892C12.9599 26.494 17.2358 26.3797 17.9909 26.2464ZM44.496 30.6837C40.423 30.3695 37.2043 28.4079 35.661 25.3037C34.1507 22.2566 34.1318 18.1954 35.6185 15.115C36.9494 12.3488 39.5829 10.5205 43.1792 9.86347C44.8276 9.65064 46.4942 9.6219 48.1489 9.77777C52.8826 10.3872 56.073 12.9867 57.0972 17.0765C57.4181 18.343 57.5125 19.2761 57.4606 20.6759C57.2435 26.532 53.4678 30.2457 47.2663 30.6932C46.0864 30.7789 45.7419 30.7789 44.496 30.6837ZM46.9643 25.4608C48.4179 25.1466 49.5364 23.9563 49.9848 22.2375C50.1594 21.5615 50.2255 19.5571 50.0981 18.7619C49.7771 16.7385 48.7294 15.4054 47.1247 14.9816C46.3862 14.8358 45.6268 14.8342 44.8877 14.9769C42.9904 15.4863 41.9474 17.1194 41.82 19.7951C41.6784 22.8422 42.8866 24.9799 45.0245 25.4608C45.6003 25.5941 46.3413 25.5941 46.9643 25.4608ZM109.258 30.6932C104.472 30.2885 101.098 27.8652 99.8186 23.9087C99.3985 22.6089 99.2805 21.7662 99.2853 20.1427C99.2853 18.0811 99.592 16.6528 100.366 15.0721C101.574 12.6059 103.859 10.8538 106.851 10.092C109.192 9.57135 111.612 9.52281 113.973 9.94917C117.168 10.5872 119.749 12.4202 121.038 14.9531C122.572 17.9764 122.609 22.1518 121.127 25.1894C119.683 28.1413 116.851 30.0553 113.142 30.5742C111.853 30.7272 110.553 30.7671 109.258 30.6932ZM112.118 25.3465C113.416 24.8847 114.27 23.8468 114.713 22.1995C114.855 21.671 114.879 21.371 114.879 20.1808C114.879 18.9905 114.855 18.6905 114.713 18.1621C114.138 15.9958 112.778 14.8721 110.74 14.8674C108.583 14.8674 107.176 16.1195 106.69 18.481C106.483 19.4999 106.52 21.3282 106.77 22.2614C107.228 23.9801 108.29 25.1323 109.725 25.4608C110.376 25.6132 111.523 25.556 112.118 25.3465ZM186.045 30.6742C185.644 30.6124 185.25 30.5169 184.865 30.3885C182.722 29.641 181.59 28.0223 181.59 25.6846C181.59 23.5421 182.458 22.1042 184.511 20.8616C185.394 20.3236 186.965 19.7094 190.08 18.681C191.496 18.2097 192.827 17.7431 193.039 17.6431L193.422 17.4527L193.407 16.7956C193.379 15.5577 192.954 14.8531 191.954 14.3817C191.453 14.1437 191.359 14.1294 190.401 14.0961C189.85 14.0795 189.298 14.1017 188.749 14.1627C187.235 14.452 185.787 15.0219 184.478 15.8434C183.836 16.2695 183.227 16.7438 182.656 17.2622C182.572 17.358 182.475 17.4413 182.368 17.5098C182.236 17.5764 182.227 17.4431 182.227 14.9769V12.3773L182.746 12.0393C184.341 11.0014 186.29 10.2824 188.612 9.87776C189.433 9.73492 189.877 9.70636 191.614 9.70636C193.709 9.7016 194.144 9.74444 195.423 10.0634C196.791 10.411 198.24 11.2061 198.948 11.9964C199.647 12.782 200.119 13.8057 200.298 14.9388C200.345 15.253 200.378 17.2146 200.378 20.1046C200.378 23.1231 200.411 24.9276 200.463 25.2227C200.567 25.7941 200.77 26.1416 201.077 26.2702C201.407 26.4035 202.091 26.3273 202.681 26.0797C202.843 26.0069 203.011 25.9464 203.182 25.8988L203.163 27.6795L203.139 29.4411L202.356 29.7458C200.922 30.3452 199.394 30.6838 197.844 30.7456C195.706 30.8361 194.597 30.3647 194.035 29.1173C193.917 28.8602 193.785 28.6698 193.719 28.6698C193.45 28.7925 193.198 28.9493 192.968 29.1364C191.458 30.2409 189.608 30.7837 187.423 30.7551C186.961 30.7512 186.5 30.7258 186.04 30.679L186.045 30.6742ZM191.708 26.7177C192.039 26.5559 192.567 26.2416 192.888 26.0226L193.459 25.6179V20.6093H193.285C193.072 20.6093 191.128 21.4805 190.335 21.9328C189.103 22.6375 188.4 23.5849 188.324 24.6419C188.254 25.6655 188.678 26.4749 189.5 26.8701C189.825 27.0224 189.981 27.051 190.5 27.032C190.924 27.0385 191.343 26.9317 191.713 26.7225L191.708 26.7177ZM241.566 30.717C240.833 30.6188 240.12 30.4068 239.451 30.0886C237.743 29.2602 236.832 27.708 236.837 25.6274C236.824 24.796 237.013 23.9741 237.389 23.2336C237.764 22.4932 238.313 21.857 238.989 21.3805C240.169 20.4997 241.311 20.0141 245.219 18.7239C247.956 17.8193 248.645 17.5526 248.711 17.3669C248.805 17.1289 248.598 15.9148 248.404 15.5054C248.117 14.9589 247.647 14.5323 247.078 14.3008C246.682 14.1437 246.521 14.1246 245.294 14.1294C244.161 14.1294 243.84 14.158 243.269 14.3008C241.405 14.7769 239.645 15.7291 238.007 17.1717L237.53 17.6002L237.512 15.8006C237.502 14.9277 237.496 14.0548 237.493 13.182V12.3535L238.366 11.8298C240.102 10.8269 242.008 10.1585 243.987 9.85871C245.204 9.66351 247.942 9.6159 249.103 9.76825C251.382 10.073 252.864 10.7062 254.03 11.8727C254.719 12.563 255.035 13.0629 255.323 13.9294C255.654 14.9198 255.696 15.7672 255.668 20.5236C255.639 25.4418 255.658 25.637 256.102 26.0893C256.328 26.3178 256.404 26.3464 256.782 26.3464C257.314 26.3034 257.833 26.158 258.311 25.9179C258.438 25.8655 258.448 25.975 258.448 27.6414V29.4268L257.546 29.7743C256.123 30.3704 254.603 30.698 253.062 30.7408C250.92 30.8361 249.806 30.3504 249.287 29.0888C249.169 28.8031 249.07 28.6698 248.98 28.6698C248.748 28.7598 248.533 28.8886 248.343 29.0507C247.352 29.8124 246.21 30.3124 244.898 30.5742C244.284 30.698 242.066 30.7932 241.566 30.717ZM247.069 26.6701C247.476 26.4623 247.867 26.2236 248.239 25.956L248.758 25.5703V23.2088C248.758 21.909 248.735 20.7949 248.711 20.7235C248.636 20.5283 248.447 20.5759 247.324 21.0806C245.384 21.9471 244.35 22.6851 243.892 23.5278C243.335 24.5562 243.548 26.0131 244.336 26.6225C244.766 26.9558 245.115 27.051 245.799 27.0177C246.246 27.022 246.685 26.9017 247.069 26.6701ZM268.071 30.679C263.488 30.3266 260.118 27.8461 258.797 23.8516C258.233 22.1015 257.993 20.2616 258.089 18.4239C258.221 15.034 258.863 12.225 260.062 9.80634C262.266 5.36424 266.117 2.75041 271.516 2.03624C272.441 1.91721 278.94 1.61727 279.015 1.69344C279.063 1.74105 278.591 6.50691 278.52 6.57832C277.713 6.6559 276.904 6.70354 276.094 6.72115C272.616 6.85447 271.157 7.03539 269.732 7.50673C267.882 8.11615 266.815 9.09218 266.277 10.6729C266.126 11.1109 266.088 11.5346 266.197 11.5346C266.369 11.4707 266.535 11.3911 266.693 11.2966C267.863 10.6586 269.199 10.4062 271.086 10.4729C276.811 10.6633 280.271 13.5533 280.95 18.7048C281.248 20.9854 280.856 23.385 279.888 25.2704C278.255 28.446 275.037 30.3695 270.827 30.698C269.909 30.7876 268.984 30.7844 268.066 30.6885L268.071 30.679ZM271.082 25.3084C272.417 24.8228 273.262 23.7182 273.611 22.0138C273.744 21.3853 273.762 21.0711 273.729 20.0617C273.682 18.7239 273.588 18.243 273.173 17.3622C272.954 16.8721 272.628 16.4379 272.221 16.0918C271.813 15.7456 271.333 15.4964 270.817 15.3625C270.279 15.2197 268.84 15.2197 268.302 15.3625C266.933 15.7291 266.018 16.7337 265.583 18.343C265.447 18.8381 265.423 19.1571 265.418 20.3331C265.418 21.8995 265.527 22.4851 266.004 23.4611C266.37 24.1596 266.927 24.7379 267.608 25.1275C268.59 25.6132 270.053 25.6893 271.082 25.3084ZM292.14 30.6885C285.986 30.179 282.196 26.1988 282.192 20.2188C282.187 18.5001 282.399 17.286 282.951 15.8386C284.249 12.4297 287.416 10.2301 291.711 9.74445C292.745 9.63018 294.845 9.64922 295.878 9.79206C300.621 10.411 303.807 13.082 304.812 17.2765C305.313 19.3666 305.209 21.9804 304.543 23.9896C303.349 27.5938 300.329 29.9505 296.124 30.5695C294.802 30.7317 293.469 30.7716 292.14 30.6885ZM294.613 25.4608C296.152 25.1275 297.299 23.8325 297.676 21.9852C297.842 21.1711 297.875 19.4618 297.743 18.7001C297.304 16.2005 295.874 14.8626 293.637 14.8674C292.15 14.8674 291.064 15.4387 290.328 16.6052C289.715 17.5764 289.479 18.5667 289.488 20.2236C289.488 21.1901 289.521 21.5567 289.663 22.1185C290.29 24.699 292.188 25.975 294.618 25.4608H294.613ZM334.517 30.6837C330.34 30.36 327.093 28.3032 325.545 24.999C324.474 22.7184 324.224 19.7237 324.889 17.0908C325.866 13.2105 328.75 10.6633 333.054 9.88252C333.861 9.73968 334.281 9.71112 335.777 9.71112C337.694 9.71112 338.288 9.79682 339.633 10.2491C342.843 11.3394 345.061 14.1056 345.689 17.8097C345.759 18.2097 345.816 18.681 345.821 18.8572C345.821 19.1 345.84 19.1381 345.891 19.019C345.929 18.9238 345.962 19.4666 345.981 20.376L346.005 21.8852L338.873 21.8662C330.732 21.8424 331.53 21.7614 331.804 22.6137C332.03 23.3278 332.478 23.9801 333.21 24.6752C334.343 25.7512 335.891 26.3416 337.571 26.3464C339.6 26.3511 341.672 25.8798 344.301 24.8228C344.881 24.5848 345.368 24.4038 345.377 24.4181C345.386 24.4372 345.377 25.3941 345.368 26.5511L345.349 28.6555L344.594 29.0126C342.663 29.9315 340.176 30.5218 337.528 30.6932C336.526 30.7799 335.519 30.7767 334.517 30.6837ZM339.378 17.8431C339.341 16.4385 338.68 15.134 337.679 14.4913C337.06 14.095 336.335 13.9005 335.603 13.9342C334.31 13.9342 333.517 14.2437 332.691 15.0626C332.137 15.6221 331.753 16.3288 331.582 17.1003C331.431 17.6859 331.388 18.2858 331.487 18.3858C331.511 18.4144 333.304 18.4287 335.466 18.4144L339.393 18.3953L339.378 17.8431ZM59.4664 20.3379L59.4428 10.1491C59.4428 10.0253 59.6504 10.0158 62.8975 10.0158H66.3617L66.3994 13.7771L66.4372 17.5431L66.8902 17.5193C67.5244 17.4917 68.1274 17.2348 68.5893 16.7956C69.1556 16.2719 69.5568 15.6387 70.4299 13.8818C70.8311 13.0629 71.2794 12.2012 71.4305 11.9774C71.7935 11.4199 72.2924 10.9658 72.8794 10.6586C73.8374 10.1825 75.6403 9.94441 77.9765 9.99202L79.2036 10.0158L79.2224 12.5868L79.246 15.153L78.4296 15.2007C77.1222 15.2721 76.8438 15.472 76.0792 16.8718C75.5129 17.9097 74.9371 18.5001 74.0687 18.9429C73.7324 19.1175 73.3756 19.2487 73.0068 19.3333C72.7095 19.3761 72.6292 19.4142 72.6292 19.5285C72.6292 19.6142 72.6953 19.6856 72.7991 19.7094C73.5543 19.8665 73.8044 19.9475 74.1678 20.1569C74.6775 20.4521 75.1589 20.9473 75.6733 21.6995C77.3423 24.5562 78.9676 27.4386 80.5486 30.3457C80.5486 30.3647 78.826 30.3838 76.7258 30.3838H72.8982L71.4257 27.4176C70.8428 26.2153 70.2243 25.0308 69.571 23.8658C68.83 22.7232 67.9993 22.1661 66.9752 22.0995C66.4419 22.0661 66.4183 22.0709 66.3711 22.2423C66.3475 22.347 66.3239 24.2182 66.3239 26.4083V30.3838H59.4805L59.4664 20.3379ZM86.0847 22.9755C86.0847 15.7339 86.0847 15.5673 85.9384 15.4911C85.844 15.4387 84.7349 15.4101 82.8659 15.4101H79.9398L79.9162 12.7535C79.9011 11.8489 79.9011 10.9442 79.9162 10.0396C79.9351 10.0063 84.2676 9.97774 89.5536 9.97774H99.1626V15.4054H96.2364C94.3628 15.4054 93.2537 15.4387 93.1593 15.4911C93.013 15.5673 93.0083 15.7291 93.0083 22.9755V30.3885H86.0847V22.9755ZM158.214 20.2998C158.212 16.9035 158.206 13.5073 158.195 10.111C158.195 10.0396 158.94 10.0158 161.668 9.99678L165.147 9.97774L165.166 13.4867L165.189 17.0003L168.762 17.0194C170.73 17.0337 172.419 17.0242 172.514 17.0003L172.684 16.9575V9.97774H179.607V30.3838H172.688L172.67 26.4463L172.646 22.5089H165.189L165.151 26.4273L165.109 30.3457L161.668 30.3647L158.228 30.3838L158.218 20.2998H158.214ZM311.349 22.9755C311.349 15.7339 311.349 15.5673 311.203 15.4911C311.108 15.4387 309.999 15.4101 308.126 15.4101H305.199L305.181 12.7535C305.164 11.8489 305.164 10.9442 305.181 10.0396C305.199 10.0063 309.532 9.97774 314.818 9.97774H324.427V15.4054H321.501C319.627 15.4054 318.518 15.4387 318.424 15.4911C318.277 15.5673 318.273 15.7291 318.273 22.9755V30.3885H311.354V22.9755H311.349Z" fill="#2295D1"/>
</g>
<defs>
<clipPath id="clip0_168:145">
<rect width="346" height="40" fill="white"/>
</clipPath>
</defs>
</svg>
